<svg width="24" height="24" xmlns="http://www.w3.org/2000/svg" fill-rule="evenodd" clip-rule="evenodd"><path d="M16 3h-8v-1h8v1zm4 10.228c-1.194.276-3.91.772-8 .772-4.091 0-6.807-.496-8-.772v-8.228h16v8.228zm.5-9.228h-17c-.276 0-.5.224-.5.5v9.5s3.098 1 9 1 9-1 9-1v-9.5c0-.276-.224-.5-.5-.5zm-5.5 14.5c0 .276-.224.5-.5.5h-5c-.276 0-.5-.224-.5-.5s.224-.5.5-.5h5c.276 0 .5.224.5.5zm4 .5c-.552 0-1-.448-1-1s.448-1 1-1 1 .448 1 1-.448 1-1 1zm0-3c-1.104 0-2 .896-2 2s.896 2 2 2 2-.896 2-2-.896-2-2-2zm-14 3c-.551 0-1-.448-1-1s.449-1 1-1c.551 0 1 .448 1 1s-.449 1-1 1zm0-3c-1.104 0-2 .896-2 2s.896 2 2 2 2-.896 2-2-.896-2-2-2zm18-5h-1v9c0 .621-.52 1-1 1h-18c-.617 0-1-.516-1-1v-9h-1v-3h1v-5c0-1.103.897-2 2-2h16c1.103 0 2 .897 2 2v5h1v3zm-3 12h-2v-1h2v1zm-14 0h-2v-1h2v1zm17-16v-4c0-1.657-1.343-3-3-3h-16c-1.657 0-3 1.343-3 3v4c-.552 0-1 .448-1 1v3c0 .552.448 1 1 1v8c0 1.239 1.037 2 2 2v1c0 .552.448 1 1 1h2c.552 0 1-.448 1-1v-1h10v1c0 .552.448 1 1 1h2c.552 0 1-.448 1-1v-1c.958 0 2-.758 2-2v-8c.552 0 1-.448 1-1v-3c0-.552-.448-1-1-1z"/></svg>